HIERARCHY
ROOT hip
{
  OFFSET 0.00112043 5.09927 -9.65472
  CHANNELS 6 Xposition Yposition Zposition Zrotation Xrotation Yrotation
  JOINT abdomen
  {
    OFFSET 0 -1.186 -1.5018
    CHANNELS 3 Zrotation Xrotation Yrotation
    JOINT abdomen2
    {
      OFFSET 0 9.964 0.2134
      CHANNELS 3 Zrotation Xrotation Yrotation
      JOINT chest
      {
        OFFSET 0 13.134 -3.2573
        CHANNELS 3 Zrotation Xrotation Yrotation
        JOINT neck
        {
          OFFSET 0 20.686 -1.6905
          CHANNELS 3 Zrotation Xrotation Yrotation
          JOINT head
          {
            OFFSET 0 7.238 -0.1237
            CHANNELS 3 Zrotation Xrotation Yrotation
            End Site
            {
              OFFSET 0 0 0
            }
          }
        }
        JOINT lCollar
        {
          OFFSET 1.7069 20.075 5.0056
          CHANNELS 3 Zrotation Xrotation Yrotation
          JOINT lShldr
          {
            OFFSET 13.6458 -0.047 -4.849
            CHANNELS 3 Zrotation Xrotation Yrotation
            JOINT lForeArm
            {
              OFFSET 28.3255 -0.9759 2.2888
              CHANNELS 3 Zrotation Xrotation Yrotation
              JOINT lHand
              {
                OFFSET 22.1583 -0.53 10.8316
                CHANNELS 3 Zrotation Xrotation Yrotation
                JOINT lThumb1
                {
                  OFFSET 0.786 0.112 2.5817
                  CHANNELS 3 Zrotation Xrotation Yrotation
                  JOINT lThumb2
                  {
                    OFFSET 0.3601 -0.878 4.2331
                    CHANNELS 3 Zrotation Xrotation Yrotation
                    JOINT lThumb2_End
                    {
                      OFFSET 1.8127 -1.216 2.2227
                      CHANNELS 3 Zrotation Xrotation Yrotation
                      End Site
                      {
                        OFFSET 0.0181 -0.0122 0.0222
                      }
                    }
                  }
                }
                JOINT lCarpal1
                {
                  OFFSET 0.9571 1.114 1.7695
                  CHANNELS 3 Zrotation Xrotation Yrotation
                  JOINT lIndex1
                  {
                    OFFSET 4.1246 0.487 4.1451
                    CHANNELS 3 Zrotation Xrotation Yrotation
                    JOINT lIndex2
                    {
                      OFFSET 3.4052 -1.454 2.7682
                      CHANNELS 3 Zrotation Xrotation Yrotation
                      JOINT lIndex2_End
                      {
                        OFFSET 1.4531 -1.795 1.2713
                        CHANNELS 3 Zrotation Xrotation Yrotation
                        End Site
                        {
                          OFFSET 0.0145 -0.0179 0.0127
                        }
                      }
                    }
                  }
                  JOINT lMid1
                  {
                    OFFSET 5.6954 0.21 2.1184
                    CHANNELS 3 Zrotation Xrotation Yrotation
                    JOINT lMid2
                    {
                      OFFSET 3.9766 -1.54 2.3863
                      CHANNELS 3 Zrotation Xrotation Yrotation
                      JOINT lMid2_End
                      {
                        OFFSET 1.4042 -1.926 1.125
                        CHANNELS 3 Zrotation Xrotation Yrotation
                        End Site
                        {
                          OFFSET 0.014 -0.0193 0.0113
                        }
                      }
                    }
                  }
                }
                JOINT lCarpal2
                {
                  OFFSET 2.0956 0.66 -0.3894
                  CHANNELS 3 Zrotation Xrotation Yrotation
                  JOINT lRing1
                  {
                    OFFSET 5.0395 -0.09 2.4971
                    CHANNELS 3 Zrotation Xrotation Yrotation
                    JOINT lRing2
                    {
                      OFFSET 3.7921 -1.552 1.4806
                      CHANNELS 3 Zrotation Xrotation Yrotation
                      JOINT lRing2_End
                      {
                        OFFSET 1.4655 -1.808 0.9609
                        CHANNELS 3 Zrotation Xrotation Yrotation
                        End Site
                        {
                          OFFSET 0.0147 -0.0181 0.0096
                        }
                      }
                    }
                  }
                  JOINT lPinky1
                  {
                    OFFSET 4.9141 -1.269 0.3591
                    CHANNELS 3 Zrotation Xrotation Yrotation
                    JOINT lPinky2
                    {
                      OFFSET 3.1477 -1.685 0.8462
                      CHANNELS 3 Zrotation Xrotation Yrotation
                      JOINT lPinky2_End
                      {
                        OFFSET 0.8055 -1.585 0.7955
                        CHANNELS 3 Zrotation Xrotation Yrotation
                        End Site
                        {
                          OFFSET 0.0081 -0.0158 0.008
                        }
                      }
                    }
                  }
                }
              }
            }
          }
        }
        JOINT rCollar
        {
          OFFSET -1.7069 20.075 5.0056
          CHANNELS 3 Zrotation Xrotation Yrotation
          JOINT rShldr
          {
            OFFSET -13.6458 -0.047 -4.849
            CHANNELS 3 Zrotation Xrotation Yrotation
            JOINT rForeArm
            {
              OFFSET -28.3255 -0.9759 2.2888
              CHANNELS 3 Zrotation Xrotation Yrotation
              JOINT rHand
              {
                OFFSET -22.1583 -0.53 10.8316
                CHANNELS 3 Zrotation Xrotation Yrotation
                JOINT rThumb1
                {
                  OFFSET -0.786 0.112 2.5817
                  CHANNELS 3 Zrotation Xrotation Yrotation
                  JOINT rThumb2
                  {
                    OFFSET -0.3601 -0.878 4.2331
                    CHANNELS 3 Zrotation Xrotation Yrotation
                    JOINT rThumb2_End
                    {
                      OFFSET -1.8127 -1.216 2.2227
                      CHANNELS 3 Zrotation Xrotation Yrotation
                      End Site
                      {
                        OFFSET -0.0181 -0.0122 0.0222
                      }
                    }
                  }
                }
                JOINT rCarpal1
                {
                  OFFSET -0.9571 1.114 1.7695
                  CHANNELS 3 Zrotation Xrotation Yrotation
                  JOINT rIndex1
                  {
                    OFFSET -4.1246 0.487 4.1451
                    CHANNELS 3 Zrotation Xrotation Yrotation
                    JOINT rIndex2
                    {
                      OFFSET -3.4052 -1.454 2.7682
                      CHANNELS 3 Zrotation Xrotation Yrotation
                      JOINT rIndex2_End
                      {
                        OFFSET -1.4531 -1.795 1.2713
                        CHANNELS 3 Zrotation Xrotation Yrotation
                        End Site
                        {
                          OFFSET -0.0145 -0.018 0.0127
                        }
                      }
                    }
                  }
                  JOINT rMid1
                  {
                    OFFSET -5.6954 0.21 2.1184
                    CHANNELS 3 Zrotation Xrotation Yrotation
                    JOINT rMid2
                    {
                      OFFSET -3.9766 -1.54 2.3863
                      CHANNELS 3 Zrotation Xrotation Yrotation
                      JOINT rMid2_End
                      {
                        OFFSET -1.4042 -1.926 1.125
                        CHANNELS 3 Zrotation Xrotation Yrotation
                        End Site
                        {
                          OFFSET -0.014 -0.0193 0.0113
                        }
                      }
                    }
                  }
                }
                JOINT rCarpal2
                {
                  OFFSET -2.0956 0.66 -0.3894
                  CHANNELS 3 Zrotation Xrotation Yrotation
                  JOINT rRing1
                  {
                    OFFSET -5.0395 -0.09 2.4971
                    CHANNELS 3 Zrotation Xrotation Yrotation
                    JOINT rRing2
                    {
                      OFFSET -3.7921 -1.552 1.4806
                      CHANNELS 3 Zrotation Xrotation Yrotation
                      JOINT rRing2_End
                      {
                        OFFSET -1.4655 -1.808 0.9609
                        CHANNELS 3 Zrotation Xrotation Yrotation
                        End Site
                        {
                          OFFSET -0.0147 -0.0181 0.0096
                        }
                      }
                    }
                  }
                  JOINT rPinky1
                  {
                    OFFSET -4.9141 -1.269 0.3592
                    CHANNELS 3 Zrotation Xrotation Yrotation
                    JOINT rPinky2
                    {
                      OFFSET -3.1477 -1.685 0.8462
                      CHANNELS 3 Zrotation Xrotation Yrotation
                      JOINT rPinky2_End
                      {
                        OFFSET -0.8055 -1.585 0.7955
                        CHANNELS 3 Zrotation Xrotation Yrotation
                        End Site
                        {
                          OFFSET -0.0081 -0.0158 0.008
                        }
                      }
                    }
                  }
                }
              }
            }
          }
        }
      }
    }
  }
  JOINT lThigh
  {
    OFFSET 8.367 -8.2066 0.5982
    CHANNELS 3 Zrotation Xrotation Yrotation
    JOINT lShin
    {
      OFFSET 2.1923 -43.463 -0.4932
      CHANNELS 3 Zrotation Xrotation Yrotation
      JOINT lFoot
      {
        OFFSET 0.7333 -45.8593 -2.6451
        CHANNELS 3 Zrotation Xrotation Yrotation
        End Site
        {
          OFFSET 2.6618 -4.2699 12.3931
        }
      }
    }
  }
  JOINT rThigh
  {
    OFFSET -8.367 -8.2066 0.5982
    CHANNELS 3 Zrotation Xrotation Yrotation
    JOINT rShin
    {
      OFFSET -2.1923 -43.463 -0.4931
      CHANNELS 3 Zrotation Xrotation Yrotation
      JOINT rFoot
      {
        OFFSET -0.7333 -45.8593 -2.6451
        CHANNELS 3 Zrotation Xrotation Yrotation
        End Site
        {
          OFFSET -2.6618 -4.2699 12.3931
        }
      }
    }
  }
}
MOTION
Frames:	4
Frame Time:	0.0333333
0 91.7903 2.51682 0 0 -0 0 0 -0 0 0 -0 0 0 -0 0 0 -0 0 0 -0 0 0 -0 1.66051 0.0835086 5.75766 -0.0175111 0.895433 15.7816 7.95139e-016 -1.98785e-016 -0 5.46658e-016 -3.97569e-016 -0 5.96354e-016 0 -0 3.97569e-016 1.98785e-016 9.54166e-015 1.49089e-016 -3.97569e-016 -0 6.4605e-016 0 3.18055e-015 5.96354e-016 0 3.18055e-015 8.94531e-016 -1.98785e-016 6.36111e-015 6.4605e-016 0 3.18055e-015 5.96354e-016 0 3.18055e-015 8.94531e-016 -1.98785e-016 6.36111e-015 1.49089e-016 -3.97569e-016 -0 6.4605e-016 0 3.18055e-015 5.96354e-016 0 3.18055e-015 8.94531e-016 -1.98785e-016 6.36111e-015 6.4605e-016 0 3.18055e-015 5.96354e-016 0 3.18055e-015 8.94531e-016 -1.98785e-016 6.36111e-015 0 0 -0 -1.4496 0.0636048 -5.0245 -1.74811 1.20616 -16.8394 -1.19271e-015 1.98785e-016 -3.18055e-015 -3.97569e-016 1.98785e-016 -3.18055e-015 -2.98177e-016 1.98785e-016 -3.18055e-015 -2.98177e-016 3.97569e-016 -0 4.96962e-016 0 -6.36111e-015 -9.93923e-017 3.97569e-016 -0 -8.94531e-016 5.96354e-016 -0 -3.97569e-016 3.97569e-016 -0 -9.93923e-017 3.97569e-016 -0 -8.94531e-016 5.96354e-016 -0 -3.97569e-016 3.97569e-016 -0 4.96962e-016 0 -6.36111e-015 -9.93923e-017 3.97569e-016 -0 -8.94531e-016 5.96354e-016 -0 -3.97569e-016 3.97569e-016 -0 -9.93923e-017 3.97569e-016 -0 -8.94531e-016 5.96354e-016 -0 -3.97569e-016 3.97569e-016 -0 -4.66111 -0.998717 0.12318 0.00986924 1.54847 0.176523 4.65186 -0.572283 -0.254274 4.66111 -0.998765 -0.123176 -0.00986867 1.54869 -0.176537 -4.65186 -0.572453 0.25427 
31.3407 27.5403 -8.70021 -0 -72.5496 -0 -0.0367411 0.64132 -0.117257 -0.0721763 1.28271 -0.234124 -0.0721762 1.2827 -0.234124 -1.23456e-005 29.6633 2.30296e-006 -1.63914e-008 6.69899 1.59196e-007 -13.7719 5.43316 1.58092 -35.7545 -10.4299 -12.9678 -3.78763 32.3835 -8.89811 -4.74599 5.42373 3.75407 2.77247e-006 1.48216e-006 -1.07573e-006 -9.5922e-008 3.51355e-006 2.50961e-007 -3.18055e-015 -3.18055e-015 6.36111e-015 -3.18055e-015 0 -3.18055e-015 2.77247e-006 1.48216e-006 -1.07573e-006 -9.5922e-008 3.51355e-006 2.50961e-007 6.36111e-015 1.59028e-014 3.18055e-015 2.77247e-006 1.48216e-006 -1.07573e-006 -9.5922e-008 3.51355e-006 2.50961e-007 6.36111e-015 1.59028e-014 3.18055e-015 -3.18055e-015 0 -3.18055e-015 2.77247e-006 1.48216e-006 -1.07573e-006 -9.5922e-008 3.51355e-006 2.50961e-007 6.36111e-015 1.59028e-014 3.18055e-015 2.77247e-006 1.48216e-006 -1.07573e-006 -9.5922e-008 3.51355e-006 2.50961e-007 6.36111e-015 1.59028e-014 3.18055e-015 13.7654 5.4349 -1.58821 35.9613 -10.3824 13.7365 2.20863 31.9503 8.65435 4.69399 5.55029 -3.61734 -7.44503e-007 9.86024e-007 3.49188e-006 -6.36111e-015 -1.59028e-015 -1.27222e-014 -1.39457e-006 7.14739e-007 5.57518e-007 0 4.77083e-015 -0 -7.44503e-007 9.86024e-007 3.49188e-006 -6.36111e-015 0 -1.90833e-014 -1.39457e-006 7.14739e-007 5.57518e-007 -7.44503e-007 9.86024e-007 3.49188e-006 -6.36111e-015 0 -1.90833e-014 -1.39457e-006 7.14739e-007 5.57518e-007 0 4.77083e-015 -0 -7.44503e-007 9.86024e-007 3.49188e-006 -6.36111e-015 0 -1.90833e-014 -1.39457e-006 7.14739e-007 5.57518e-007 -7.44503e-007 9.86024e-007 3.49188e-006 -6.36111e-015 0 -1.90833e-014 -1.39457e-006 7.14739e-007 5.57518e-007 -1.00715 -15.467 23.7127 24.9974 35.7757 -14.1857 -6.28409 18.1001 -2.00044 1.00734 -15.4426 -23.7107 -24.9835 35.7555 14.1736 6.28561 18.1004 1.99236 
45.4442 -5.0394 -10.1578 -180 -74.5793 -180 -0.0628059 1.03558 -0.167134 -0.12262 2.07145 -0.333215 -0.12262 2.07143 -0.333215 -8.88617e-006 42.8398 2.36195e-005 -8.90534e-008 9.54834 -7.21886e-008 -19.7566 7.85163 2.55283 -54.912 -14.1689 -21.8395 4.48445 41.1968 -27.0756 -6.82517 7.78159 5.84953 -0 -4.77083e-015 -0 -2.74206e-006 6.65715e-006 3.40718e-006 6.36111e-015 1.59028e-015 -0 -0 -4.77083e-015 -0 3.18055e-015 -7.95139e-015 -0 -2.74206e-006 6.65715e-006 3.40718e-006 3.18055e-015 3.18055e-015 -6.36111e-015 3.18055e-015 -7.95139e-015 -0 -2.74206e-006 6.65715e-006 3.40718e-006 3.18055e-015 3.18055e-015 -6.36111e-015 -0 -4.77083e-015 -0 3.18055e-015 -7.95139e-015 -0 -2.74206e-006 6.65715e-006 3.40718e-006 3.18055e-015 3.18055e-015 -6.36111e-015 3.18055e-015 -7.95139e-015 -0 -2.74206e-006 6.65715e-006 3.40718e-006 3.18055e-015 3.18055e-015 -6.36111e-015 19.766 7.84387 -2.53906 55.1089 -14.0921 22.6174 -5.84762 40.4101 26.9015 6.76472 7.99304 -5.64318 1.04929e-006 3.72218e-006 -4.07594e-006 0 1.74931e-014 -0 2.43691e-007 -2.78325e-007 -2.12744e-007 -3.18055e-015 -6.36111e-015 -3.18055e-015 1.04929e-006 3.72218e-006 -4.07594e-006 5.29669e-031 4.77083e-015 -6.36111e-015 2.43691e-007 -2.78325e-007 -2.12744e-007 1.04929e-006 3.72218e-006 -4.07594e-006 5.29669e-031 4.77083e-015 -6.36111e-015 2.43691e-007 -2.78325e-007 -2.12744e-007 -3.18055e-015 -6.36111e-015 -3.18055e-015 1.04929e-006 3.72218e-006 -4.07594e-006 5.29669e-031 4.77083e-015 -6.36111e-015 2.43691e-007 -2.78325e-007 -2.12744e-007 1.04929e-006 3.72218e-006 -4.07594e-006 5.29669e-031 4.77083e-015 -6.36111e-015 2.43691e-007 -2.78325e-007 -2.12744e-007 4.60195 -20.3962 35.2654 45.6883 49.5059 -27.1004 -11.3059 25.791 -2.5978 -4.62253 -20.3941 -35.2925 -45.6895 49.5055 27.096 11.2829 25.7907 2.61813 
42.3106 2.34471 -10.1163 -180 -81.3866 -180 -0.0577471 1.18297 -0.155694 -0.112314 2.3661 -0.310294 -0.112314 2.36607 -0.310294 -1.43557e-005 39.5334 1.83095e-005 -1.10677e-007 8.548 -1.75386e-007 -17.7216 7.26475 2.88868 -50.8144 -13.2056 -19.8134 1.70619 39.5808 -24.4202 -5.90767 6.98519 6.18884 2.70361e-006 9.09149e-007 4.0329e-006 6.13261e-006 -2.88266e-006 1.45338e-005 -1.6107e-006 -1.61541e-006 1.14628e-006 3.18055e-015 -8.74653e-015 -4.77083e-015 2.70361e-006 9.09149e-007 4.0329e-006 6.13261e-006 -2.88266e-006 1.45338e-005 -1.6107e-006 -1.61541e-006 1.14628e-006 2.70361e-006 9.09149e-007 4.0329e-006 6.13261e-006 -2.88266e-006 1.45338e-005 -1.6107e-006 -1.61541e-006 1.14628e-006 3.18055e-015 -8.74653e-015 -4.77083e-015 2.70361e-006 9.09149e-007 4.0329e-006 6.13261e-006 -2.88266e-006 1.45338e-005 -1.6107e-006 -1.61541e-006 1.14628e-006 2.70361e-006 9.09149e-007 4.0329e-006 6.13261e-006 -2.88266e-006 1.45338e-005 -1.6107e-006 -1.61541e-006 1.14628e-006 17.769 7.23615 -2.8256 51.0111 -13.1378 20.5862 -3.11712 38.8343 24.1922 5.88757 7.2359 -5.98384 4.88538e-007 1.63927e-006 1.14754e-007 -4.88538e-007 -1.63927e-006 -1.14754e-007 1.0286e-006 1.11509e-006 -2.82394e-007 -3.18055e-015 -7.95139e-015 -3.18055e-015 4.88538e-007 1.63927e-006 1.14754e-007 -4.88538e-007 -1.63927e-006 -1.14754e-007 1.0286e-006 1.11509e-006 -2.82394e-007 4.88538e-007 1.63927e-006 1.14754e-007 -4.88538e-007 -1.63927e-006 -1.14754e-007 1.0286e-006 1.11509e-006 -2.82394e-007 -3.18055e-015 -7.95139e-015 -3.18055e-015 4.88538e-007 1.63927e-006 1.14754e-007 -4.88538e-007 -1.63927e-006 -1.14754e-007 1.0286e-006 1.11509e-006 -2.82394e-007 4.88538e-007 1.63927e-006 1.14754e-007 -4.88538e-007 -1.63927e-006 -1.14754e-007 1.0286e-006 1.11509e-006 -2.82394e-007 2.92593 -18.7231 32.3149 40.1822 46.6584 -23.4514 -10.421 24.0597 -2.18802 -2.9887 -18.7215 -32.405 -40.1824 46.6569 23.4469 10.3462 24.0592 2.27338 
